<svg xmlns="http://www.w3.org/2000/svg" xmlns:xlink="http://www.w3.org/1999/xlink" fill="none" version="1.1" width="80" height="80" viewBox="0 0 80 80"><defs><mask id="master_svg1_516_076"><path d="M41.34813229827881,5.199494759684741L70.70773229827881,21.979005759684743C71.1570322982788,22.23580575968474,71.43373229827881,22.71040575968474,71.43373229827881,23.22390575968474L71.43373229827881,56.78300575968474C71.43373229827881,57.29650575968474,71.1570322982788,57.771105759684744,70.70773229827881,58.02790575968474L41.34813229827881,74.80740575968474C40.898832298278805,75.06420575968474,40.34523229827881,75.06420575968474,39.89593229827881,74.80740575968474L10.53642029827881,58.02790575968474C10.087115298278809,57.771105759684744,9.810332298278809,57.29650575968474,9.810332298278809,56.78300575968474L9.810332298278809,23.22390575968474C9.810332298278809,22.71040575968474,10.087115298278809,22.23580575968474,10.53642029827881,21.979005759684743L39.89593229827881,5.199494759684741C40.34523229827881,4.942709259684741,40.898832298278805,4.942709259684741,41.34813229827881,5.199494759684741Z" fill="#FFFFFF" fill-opacity="1"/></mask><linearGradient x1="0.6904404759407043" y1="0.5" x2="0.003498853649944067" y2="0.5" id="master_svg2_516_427"><stop offset="0%" stop-color="#00C1C7" stop-opacity="1"/><stop offset="100%" stop-color="#009297" stop-opacity="1"/></linearGradient></defs><clipPath id="master_svg0_516_069"><rect x="0" y="0" width="80" height="80" rx="0"/></clipPath><g clip-path="url(#master_svg0_516_069)"><g><g><g><g mask="url(#master_svg1_516_076)"><g><path d="M74.16150145645142,48.7439L77.42570145645142,54.3478L40.66660145645142,75.3289L5.900301456451416,55.4242L9.172031456451416,49.8245L39.94560145645141,67.4433C40.39480145645142,67.7005,40.94850145645142,67.70089999999999,41.398101456451414,67.4443L74.16150145645142,48.7439ZM9.172031456451416,38.7737L39.944401456451416,56.3918C40.39380145645141,56.6491,40.947801456451415,56.6493,41.39740145645142,56.3924L71.31560145645142,39.2975L74.58250145645141,44.8999L41.394101456451416,63.8633C40.94450145645141,64.1203,40.39050145645142,64.12,39.94110145645141,63.8627L5.900301456451416,44.3733L9.172031456451416,38.7737ZM41.37410145645141,5.195559L45.96700145645141,7.84549C46.41340145645142,8.10304,46.687901456451414,8.57598,46.687901456451414,9.08744L46.687301456451415,10.81083L48.13600145645142,9.98391C48.58340145645142,9.72824,49.13430145645142,9.72711,49.58280145645141,9.98094L54.215801456451416,12.603159999999999C54.66810145645142,12.85914,54.94720145645142,13.33535,54.94720145645142,13.85108L54.94680145645142,15.4511L56.285501456451414,14.68699C56.73450145645142,14.43039,57.287701456451416,14.43025,57.73690145645141,14.68664L62.388901456451414,17.342C62.838601456451414,17.598599999999998,63.11570145645142,18.0734,63.11570145645142,18.5873L63.11550145645142,20.5522L64.96880145645142,19.499000000000002C65.41940145645142,19.2426,65.97400145645142,19.2441,66.42320145645141,19.503L70.74420145645142,21.9935C71.19090145645141,22.2509,71.46570145645141,22.7241,71.46570145645141,23.2357L71.46570145645141,35.615300000000005L65.65700145645141,32.254999999999995L65.65700145645141,25.7469L41.307401456451416,39.5874C40.856401456451415,39.8438,40.57830145645141,40.3192,40.57830145645141,40.834L40.57830145645141,53.1442L34.76960145645141,49.8204L34.76960145645141,37.5136C34.76960145645141,36.998999999999995,35.04740145645141,36.523700000000005,35.498101456451415,36.2673L57.306501456451414,23.8574L57.30700145645142,20.7426L32.772901456451415,34.762299999999996C32.323601456451414,35.0191,32.04680145645142,35.493700000000004,32.04680145645142,36.0073L32.04680145645142,48.2563L26.238101456451417,44.9332L26.238101456451417,32.6873C26.238101456451417,32.1736,26.514901456451415,31.6991,26.964201456451416,31.4423L49.13770145645142,18.7706L49.138501456451415,16.0504L24.604401456451416,30.0701C24.155101456451415,30.3268,23.878301456451418,30.8014,23.878301456451418,31.315L23.878301456451418,43.652L18.069601456451416,40.3643L18.069601456451416,27.995C18.069601456451416,27.4814,18.346401456451417,27.0068,18.795701456451418,26.7501L40.879101456451416,14.13028L40.87920145645142,11.281939999999999L15.619031456451417,25.7166L15.619031456451417,38.8668L9.810331456451415,35.5372L9.810331456451415,23.2266C9.810331456451415,22.713,10.087151456451416,22.2384,10.536491456451415,21.9816L39.91680145645142,5.192546C40.36800145645142,4.9347452,40.92410145645142,4.9358948,41.37410145645141,5.195559Z" fill-rule="evenodd" fill="url(#master_svg2_516_427)" fill-opacity="1"/></g></g></g></g></g></g></svg>