<svg xmlns="http://www.w3.org/2000/svg" xmlns:xlink="http://www.w3.org/1999/xlink" fill="none" version="1.1" width="80" height="80" viewBox="0 0 80 80"><defs><mask id="master_svg1_448_1893"><path d="M45.9073,8.323645577392579L68.92060000000001,21.88893557739258L68.92060000000001,44.607535577392575L68.91149999999999,44.60723557739258C68.5745,55.04543557739258,58.9241,64.50963557739257,39.960300000000004,73.00003557739258C20.99658,64.50963557739257,11.346185,55.04543557739258,11.00914769,44.60723557739258L11,44.607535577392575L11,21.85453557739258L34.1386,8.306435577392579C37.7744,6.177624577392578,42.2778,6.184208577392578,45.9073,8.323645577392579Z" fill="#FFFFFF" fill-opacity="1"/></mask></defs><clipPath id="master_svg0_448_1869"><rect x="0" y="0" width="80" height="80" rx="0"/></clipPath><g clip-path="url(#master_svg0_448_1869)"><g><g style="mix-blend-mode:passthrough"><g><g><path d="M45.9073,8.323645577392579L68.92060000000001,21.88893557739258L68.92060000000001,44.607535577392575L68.91149999999999,44.60723557739258C68.5745,55.04543557739258,58.9241,64.50963557739257,39.960300000000004,73.00003557739258C20.99658,64.50963557739257,11.346185,55.04543557739258,11.00914769,44.60723557739258L11,44.607535577392575L11,21.85453557739258L34.1386,8.306435577392579C37.7744,6.177624577392578,42.2778,6.184208577392578,45.9073,8.323645577392579Z" fill-rule="evenodd" fill="#3175FD" fill-opacity="1"/><g mask="url(#master_svg1_448_1893)"><rect x="39.960205078125" y="8.265174150466919" width="28.9603214263916" height="64.73483276367188" rx="0" fill="#3AC7FF" fill-opacity="1"/></g></g><path d="M48.42797055419922,15.09600796875L80.84558055419922,6.62841796875L72.37798055419921,39.04601796875L39.96038055419922,47.51361796875L48.42797055419922,15.09600796875Z" transform="matrix(0.7071067690849304,0.7071067690849304,-0.7071067690849304,0.7071067690849304,16.391124183142438,-26.3148368303614)" fill="#FFFFFF" fill-opacity="1"/><path d="M48.42797055419922,1.4675899999999995L80.84558055419922,-7L72.37798055419921,25.4176L39.96038055419922,33.8852L48.42797055419922,1.4675899999999995Z" transform="matrix(0.7071067690849304,0.7071067690849304,-0.7071067690849304,0.7071067690849304,6.754377585520615,-30.306508201489578)" fill="#3175FD" fill-opacity="1"/></g></g></g></g></svg>