<svg width="512.000000" height="512.000000" viewBox="0 0 512 512" fill="none" xmlns="http://www.w3.org/2000/svg" xmlns:xlink="http://www.w3.org/1999/xlink">
	<desc>
			Created with Pixso.
	</desc>
	<defs>
		<clipPath id="clip26_61">
			<rect id="画板 4" width="512.000000" height="512.000000" fill="white"/>
		</clipPath>
	</defs>
	<g clip-path="url(#clip26_61)">
		<path id="合并" d="M230.125 44.2307C222.767 43.4173 215.291 42.9998 207.717 42.9998C200.143 42.9998 192.667 43.4173 185.31 44.2307L185.311 231.419L44.3423 362.875C44.541 363.149 44.7405 363.423 44.9407 363.696L45.0173 363.801C45.3271 364.223 45.6387 364.644 45.9517 365.064C46.0518 365.198 46.1519 365.332 46.2524 365.466C46.4824 365.773 46.7131 366.079 46.9448 366.385C47.0664 366.545 47.1882 366.705 47.3105 366.866C47.6177 367.268 47.926 367.669 48.2358 368.069C48.3096 368.164 48.3835 368.259 48.4575 368.354C48.74 368.717 49.0234 369.079 49.3079 369.44C49.3999 369.556 49.4919 369.673 49.5845 369.79C50.28 370.667 50.9827 371.539 51.6924 372.405C51.7539 372.48 51.8154 372.555 51.8767 372.629C52.5847 373.49 53.2998 374.346 54.0217 375.195C54.1379 375.331 54.2542 375.468 54.3701 375.604C54.644 375.924 54.9187 376.243 55.1948 376.562C55.2678 376.647 55.3411 376.731 55.4143 376.815C55.7876 377.245 56.1628 377.673 56.5398 378.1L56.6707 378.248C57.0146 378.637 57.3604 379.024 57.7073 379.41C57.7678 379.478 57.8281 379.545 57.8884 379.612C58.2693 380.034 58.6521 380.455 59.0364 380.874C59.1086 380.953 59.1809 381.032 59.2534 381.111C59.5625 381.447 59.8728 381.782 60.1841 382.116C60.2878 382.227 60.3918 382.339 60.4954 382.449C61.2295 383.233 61.9697 384.011 62.7156 384.783C62.8569 384.929 62.9983 385.075 63.1401 385.221C63.8601 385.961 64.5857 386.696 65.3169 387.425C65.4688 387.577 65.6206 387.728 65.7727 387.878C66.0503 388.154 66.3289 388.428 66.6079 388.701C66.7173 388.809 66.8269 388.916 66.9365 389.023C67.2915 389.369 67.6475 389.713 68.0046 390.057C68.1296 390.177 68.2546 390.297 68.3796 390.416C68.6963 390.719 69.0142 391.021 69.3328 391.322C69.4258 391.409 69.5188 391.497 69.6116 391.584C70.0181 391.967 70.4263 392.347 70.8359 392.726C70.9038 392.789 70.9717 392.852 71.0398 392.914C71.3823 393.23 71.7258 393.545 72.0703 393.858C72.1858 393.963 72.3013 394.068 72.4172 394.173C72.8281 394.545 73.2405 394.915 73.6543 395.284L73.657 395.286C73.7607 395.379 73.8645 395.471 73.9685 395.563L74.4851 396.02L74.4963 396.03C110.024 427.32 156.654 446.3 207.717 446.3C227.739 446.3 247.078 443.382 265.334 437.948L262.891 437.948C254.425 437.948 246.538 436.494 239.229 433.585C230.961 430.295 223.433 425.143 216.646 418.131C211.666 412.985 207.657 407.427 204.619 401.458C167.706 400.743 133.916 387.275 107.474 365.277L230.063 250.959L230.069 250.251L230.123 250.251L230.124 89.3992L230.125 89.3994L230.125 44.2307ZM407.552 271.832Q402.074 262.507 393.756 254.598C386.114 247.33 377.748 241.991 368.658 238.579C367.249 238.051 365.823 237.568 364.38 237.132C361.378 173.511 320.469 119.81 263.734 98.1093L263.735 50.8817C347.85 75.1554 409.368 152.718 409.368 244.649C409.368 253.868 408.75 262.941 407.552 271.832ZM151.703 98.1094L151.702 50.8818C67.5862 75.1553 6.06787 152.718 6.06787 244.65C6.06787 276.89 13.6343 307.364 27.0881 334.391L61.7292 302.086C54.7258 284.299 50.8789 264.924 50.8789 244.65C50.8789 177.765 92.7463 120.659 151.703 98.1094ZM282.319 426C277.887 426 273.55 425.551 269.309 424.652C265.224 423.787 261.229 422.504 257.322 420.805C254.088 419.399 251.013 417.751 248.095 415.86C244.116 413.281 240.431 410.251 237.04 406.771C234.257 403.915 231.774 400.859 229.59 397.604C227.186 394.021 225.145 390.196 223.466 386.129C221.991 382.556 220.844 378.91 220.026 375.192C219.009 370.566 218.5 365.83 218.5 360.981C218.5 356.133 219.009 351.396 220.026 346.771C220.844 343.053 221.991 339.407 223.466 335.833C225.145 331.767 227.186 327.942 229.59 324.359C231.774 321.104 234.257 318.048 237.04 315.192C240.431 311.711 244.116 308.682 248.095 306.103C251.012 304.212 254.088 302.563 257.322 301.157C261.229 299.458 265.224 298.176 269.309 297.311C270.743 297.007 272.188 296.754 273.644 296.553C274.784 292.574 276.253 288.755 278.05 285.097C281.772 277.518 286.905 270.627 293.446 264.424C300.57 257.669 308.37 252.676 316.845 249.445C324.617 246.482 332.957 245 341.865 245C350.749 245 359.069 246.475 366.825 249.424C375.281 252.639 383.067 257.608 390.183 264.329C396.717 270.5 401.85 277.359 405.585 284.907C407.493 288.764 409.036 292.8 410.213 297.016C410.706 297.108 411.198 297.206 411.688 297.31C415.774 298.175 419.77 299.458 423.678 301.157C426.912 302.563 429.987 304.212 432.905 306.103C436.884 308.682 440.569 311.711 443.96 315.192C446.742 318.048 449.226 321.104 451.41 324.359C453.813 327.942 455.855 331.767 457.534 335.833C459.009 339.407 460.155 343.053 460.973 346.77C461.991 351.396 462.5 356.133 462.5 360.981C462.5 365.83 461.991 370.567 460.973 375.193C460.155 378.91 459.009 382.556 457.534 386.129C455.855 390.196 453.813 394.021 451.41 397.604C449.226 400.859 446.742 403.915 443.96 406.771C440.569 410.251 436.884 413.281 432.905 415.86C429.987 417.751 426.912 419.399 423.678 420.805C419.771 422.504 415.775 423.787 411.69 424.652Q405.329 426 398.68 426L282.319 426ZM282.319 392.977L398.68 392.977C402.491 392.977 406.055 392.34 409.373 391.064C413.336 389.54 416.948 387.105 420.207 383.76C423.079 380.813 425.276 377.576 426.8 374.05C428.522 370.064 429.383 365.708 429.383 360.981C429.383 356.255 428.522 351.899 426.8 347.913C425.276 344.387 423.079 341.15 420.207 338.203C416.948 334.858 413.337 332.423 409.374 330.899C406.056 329.623 402.491 328.985 398.68 328.985C398.173 328.985 397.663 328.999 397.15 329.028L381.119 329.911L379.74 313.96C379.278 308.622 377.926 303.729 375.684 299.282C373.655 295.257 370.897 291.597 367.409 288.303C363.485 284.597 359.193 281.892 354.533 280.19C350.576 278.745 346.353 278.023 341.865 278.023C337.365 278.023 333.133 278.748 329.167 280.2C324.496 281.911 320.196 284.629 316.266 288.355C312.774 291.666 310.016 295.343 307.993 299.385C305.757 303.852 304.418 308.765 303.976 314.124L302.573 331.129L285.574 329.172C284.95 329.1 284.325 329.049 283.698 329.019C283.239 328.996 282.78 328.985 282.319 328.985C278.509 328.985 274.944 329.623 271.627 330.899C267.663 332.423 264.052 334.858 260.793 338.203C257.921 341.15 255.724 344.387 254.2 347.913C252.478 351.899 251.616 356.255 251.616 360.981Q251.616 368.036 254.175 373.992L254.176 373.993L254.2 374.05C255.724 377.576 257.921 380.813 260.793 383.76C264.052 387.105 267.663 389.54 271.627 391.064C274.944 392.34 278.509 392.977 282.319 392.977Z" clip-rule="evenodd" fill-rule="evenodd" fill="#2080F7" fill-opacity="1.000000"/>
	</g>
</svg>
